<svg version="1.2" xmlns="http://www.w3.org/2000/svg" viewBox="0 0 201 201" width="512" height="512">
	<title>ry-logo-icon</title>
	<style>
		.s0 { fill: #3c1475 } 
		.s1 { fill: #0098ed } 
	</style>
	<g id="&lt;Group&gt;">
		<g id="&lt;Group&gt;">
			<path id="&lt;Path&gt;" class="s0" d="m152.7 166.7q0 5-0.4 10h-56.7q0.9-4.9 0.9-10c0-10.6-3-20.4-8.3-28.7q0.2 0 0.4-0.1c17.6-7 33.3-18 45.8-31.9 6.5 9.7 11.4 20.4 14.5 31.9 2.5 9.2 3.8 18.8 3.8 28.8z"/>
		</g>
		<g id="&lt;Group&gt;">
			<path id="&lt;Path&gt;" class="s1" d="m157.6 23.3c0 29-10.7 55.3-28.4 75.5-12.4 14.2-28.4 25.4-46.5 32-12.3 4.6-25.7 7.1-39.7 7.1v-55c16.5 0 31.4-6.7 42.2-17.5 10.7-10.8 17.4-25.7 17.4-42.1z"/>
		</g>
		<g id="&lt;Group&gt;">
			<path id="&lt;Path&gt;" class="s0" d="m94.2 23.3c0 15.6-6.9 29.5-17.8 38.8-9 7.8-20.6 12.4-33.4 12.4v-51.2z"/>
		</g>
	</g>
</svg>