<svg version="1.2" xmlns="http://www.w3.org/2000/svg" viewBox="0 0 1408 201" width="1408" height="201">
	<title>ry-logo</title>
	<style>
		.s0 { fill: #3c1475 } 
		.s1 { fill: #0098ed } 
	</style>
	<g id="&lt;Group&gt;">
		<g id="&lt;Group&gt;">
			<g id="&lt;Group&gt;">
				<g id="&lt;Group&gt;">
					<path id="&lt;Compound Path&gt;" class="s0" d="m281.3 108.9c19.9-4.1 26.6-18.6 26.6-33 0-18.2-13.1-34.8-37.9-34.9-16.6 0-33.3-0.1-50-0.1v18.6h50c12.5 0 18 8.4 18 16.8 0 8.4-5.3 16.8-18 16.8h-50v53h19.8v-35.1h19.1l30.6 35.1h23.6v-1.3z"/>
				</g>
			</g>
			<g id="&lt;Group&gt;">
				<g id="&lt;Group&gt;">
					<path id="&lt;Compound Path&gt;" fill-rule="evenodd" class="s0" d="m396.2 72.1v74h-17.3l-0.9-10.8c-4.2 8.7-15.8 13-24 13.1-21.9 0.1-38.2-13.3-38.2-39.4 0-25.5 17-38.9 38.6-38.7 9.9 0 19.4 4.7 23.6 12l0.6-10.2zm-40.1 14.6c-12.2 0-21.9 8.2-21.9 22.3 0 14.2 9.7 22.6 21.9 22.6 28.8 0 28.8-44.9 0-44.9z"/>
				</g>
			</g>
			<g id="&lt;Group&gt;">
				<g id="&lt;Group&gt;">
					<path id="&lt;Compound Path&gt;" class="s0" d="m462.8 72.1l-13.5 32.4-7.7 20.5-7-20.9-11.3-32h-21.3l29.6 72.8-13.9 32.2h20.2l45.2-105z"/>
				</g>
			</g>
			<g id="&lt;Group&gt;">
				<g id="&lt;Group&gt;">
					<path id="&lt;Compound Path&gt;" class="s0" d="m577.3 71c-9.6 0-18.2 3-24.8 13.6-4.2-10.2-13.1-13.8-21.9-13.8-7.1 0-15.7 2.6-19.6 10.2l-1.4-9.1h-16.9v74.2h18.3v-39.6c0-9.8 5.9-18.7 15.8-18.7 10.1 0 15.2 8.9 15.2 18.7v39.6h18.3v-39.6c0-9.8 6.1-18.3 16.1-18.3 9.9 0 14 8.2 14 18v39.9h18.3v-39.9c0-22.2-10.4-35.2-31.4-35.2z"/>
				</g>
			</g>
			<g id="&lt;Group&gt;">
				<g id="&lt;Group&gt;">
					<path id="&lt;Compound Path&gt;" class="s0" d="m679.7 72.1v37.8c0 11.3-7.7 20.8-19 20.8-11.7 0-17.8-8.6-17.8-19.8v-38.8h-18.4v38.9c0 23 13 36.4 30.7 36.4 10.3 0 17.4-3.6 25-11.2l1.3 10.1h16.3v-74.2z"/>
				</g>
			</g>
			<g id="&lt;Group&gt;">
				<g id="&lt;Group&gt;">
					<path id="&lt;Compound Path&gt;" class="s0" d="m755.5 70.9c-9.3 0-16.8 3.7-24.4 11.1l-1.1-10.1h-16.4v74.2h18.2v-37.8c0-11.2 7.6-20.7 18.9-20.7 11.7 0 17.8 8.5 17.8 19.8v38.7h18.4v-38.8c0-23.3-14-36.4-31.4-36.4z"/>
				</g>
			</g>
			<g id="&lt;Group&gt;">
				<g id="&lt;Group&gt;">
					<path id="&lt;Compound Path&gt;" fill-rule="evenodd" class="s0" d="m879.5 41.1v105h-17.1l-1.2-10.2c-5.7 8.9-14.9 11.9-23.8 11.9-21.8 0-38.2-14.4-38.2-38.8 0-25.5 16-38.7 37.7-38.7 7.8 0 20 4.2 24.3 11.8v-41zm-19.5 67.9c0-12.9-9.9-21.6-21.5-21.6-11.7 0-21 8.3-21 21.6 0 13 9.3 21.8 21 21.8 11.6 0 21.5-8.4 21.5-21.8z"/>
				</g>
			</g>
			<g id="&lt;Group&gt;">
				<g id="&lt;Group&gt;">
					<path id="&lt;Compound Path&gt;" fill-rule="evenodd" class="s0" d="m969 109.2c0 21.4-14.6 38.6-38.6 38.6-24 0-38.4-17.2-38.4-38.6 0-21.2 14.7-38.6 38.3-38.6 23.6 0 38.7 17.4 38.7 38.6zm-18.4 0c0-11.1-7.9-21.9-20.2-21.9-13.2 0-20.1 10.8-20.1 21.9 0 11.3 6.8 21.8 20.1 21.8 13.4 0 20.2-10.5 20.2-21.8z"/>
				</g>
			</g>
			<g id="&lt;Group&gt;">
				<g id="&lt;Group&gt;">
					<path id="&lt;Compound Path&gt;" class="s1" d="m1055.2 41l-27.9 43.4-26.7-43.4h-23.7v0.9l40.5 60.9v43.3h19.8v-43.3l41.9-60.9v-0.9z"/>
				</g>
			</g>
			<g id="&lt;Group&gt;">
				<g id="&lt;Group&gt;">
					<path id="&lt;Compound Path&gt;" class="s1" d="m1120.4 124.7c-4.5 4.5-10.3 6.1-16.2 6.1-11.4 0-21-7.5-21-21.6 0-12.9 8.9-21.9 21.3-21.9 5.1 0 10.5 1.9 14.8 5.8l11.6-12.1c-8.1-8-16.2-11-26.7-11-21.5 0-39.4 12.9-39.4 39.2 0 26.3 17.9 39.2 39.4 39.2 11 0 20-3.3 28.5-11.7z"/>
				</g>
			</g>
			<g id="&lt;Group&gt;">
				<g id="&lt;Group&gt;">
					<path id="&lt;Compound Path&gt;" fill-rule="evenodd" class="s1" d="m1217.1 72.1v74h-17.2l-0.9-10.8c-4.3 8.7-15.8 13-24.1 13.1-21.9 0.1-38.2-13.3-38.2-39.4 0-25.5 17.1-38.9 38.6-38.7 10 0 19.4 4.7 23.7 12l0.5-10.2zm-40.1 14.6c-12.2 0-21.9 8.2-21.9 22.3 0 14.2 9.7 22.6 21.9 22.6 28.8 0 28.8-44.9 0-44.9z"/>
				</g>
			</g>
			<g id="&lt;Group&gt;">
				<g id="&lt;Group&gt;">
					<path id="&lt;Compound Path&gt;" class="s1" d="m1254.4 128.1l34-47.3v-8.7h-59.3v16.7h32.8l-35.5 49.7v7.6h62.4v-18z"/>
				</g>
			</g>
			<g id="&lt;Group&gt;">
				<g id="&lt;Group&gt;">
					<path id="&lt;Compound Path&gt;" fill-rule="evenodd" class="s1" d="m1376 72.1v74h-17.3l-0.9-10.8c-4.2 8.7-15.8 13-24 13.1-21.9 0.1-38.2-13.3-38.2-39.4 0-25.5 17-38.9 38.6-38.7 10 0 19.4 4.7 23.6 12l0.6-10.2zm-40.1 14.6c-12.1 0-21.9 8.2-21.9 22.3 0 14.2 9.8 22.6 21.9 22.6 28.9 0 28.9-44.9 0-44.9z"/>
				</g>
			</g>
		</g>
		<g id="&lt;Group&gt;">
			<g id="&lt;Group&gt;">
				<path id="&lt;Path&gt;" class="s0" d="m155.7 175.7q0 5-0.4 10h-56.7q0.9-4.9 0.9-10c0-10.6-3-20.4-8.3-28.7q0.2 0 0.4-0.1c17.6-7 33.3-18 45.8-31.9 6.5 9.7 11.4 20.4 14.5 31.9 2.5 9.2 3.8 18.8 3.8 28.8z"/>
			</g>
			<g id="&lt;Group&gt;">
				<path id="&lt;Path&gt;" class="s1" d="m160.6 32.3c0 29-10.7 55.3-28.4 75.5-12.4 14.2-28.4 25.4-46.5 32-12.3 4.6-25.7 7.1-39.7 7.1v-55c16.5 0 31.4-6.7 42.2-17.5 10.7-10.8 17.4-25.7 17.4-42.1z"/>
			</g>
			<g id="&lt;Group&gt;">
				<path id="&lt;Path&gt;" class="s0" d="m97.2 32.3c0 15.6-6.9 29.5-17.8 38.8-9 7.8-20.6 12.4-33.4 12.4v-51.2z"/>
			</g>
		</g>
	</g>
</svg>